<svg width="398" height="398" viewBox="0 0 398 398" fill="none" xmlns="http://www.w3.org/2000/svg">
<path d="M177.884 117.49C173.991 119.9 174.399 122.384 178.514 121.272C179.997 120.864 182.778 120.753 184.743 121.012C187.56 121.383 188.339 121.272 188.709 120.308C190.044 116.86 182.222 114.821 177.884 117.49Z" fill="#243515"/>
<path d="M213.399 117.267C210.433 119.529 212.139 121.012 217.737 121.049C220.591 121.086 223.52 121.345 224.224 121.679C226.486 122.718 225.782 119.418 223.372 117.712C220.851 115.933 215.513 115.673 213.399 117.267Z" fill="#243515"/>
<path d="M179.848 125.387C172.804 128.501 174.065 140.661 181.368 140.661H183.333L180.998 143.59C179.292 145.666 178.551 147.482 178.291 150.077L177.958 153.636L180.441 148.817C188.449 133.061 214.697 133.358 220.777 149.225C221.555 151.301 222.297 152.339 222.742 151.894C223.743 150.893 222.223 146.185 219.961 143.182C218.441 141.18 218.293 140.661 219.22 140.661C225.522 140.661 228.377 131.875 223.631 127.092C218.256 121.717 210.767 125.646 211.694 133.358C212.102 136.879 212.065 136.954 210.507 136.101C207.69 134.618 196.494 134.395 192.49 135.73C190.525 136.397 188.82 136.954 188.709 136.954C188.597 136.954 188.82 136.027 189.265 134.915C191.6 128.76 185.706 122.792 179.848 125.387ZM186.188 128.39C187.597 130.058 186.818 132.134 184.816 132.134C182.48 132.134 181.146 130.058 182.48 128.501C183.667 127.018 185.038 126.981 186.188 128.39ZM218.071 128.39C219.479 130.058 218.701 132.134 216.699 132.134C214.363 132.134 213.028 130.058 214.363 128.501C215.549 127.018 216.921 126.981 218.071 128.39Z" fill="#243515"/>
<path d="M192.416 140.624C187.115 143.849 189.451 150.04 196.902 152.487C199.201 153.266 199.275 153.414 198.867 156.417C197.866 164.017 184.446 163.387 182.184 155.638C181.332 152.746 179.293 152.709 178.959 155.564C178.217 161.941 190.526 167.316 197.644 163.683C200.795 162.089 205.503 163.349 205.503 165.833C205.503 166.501 206.022 167.798 206.689 168.725C210.434 174.027 218.108 170.986 218.108 164.165C218.108 162.571 218.664 161.162 219.665 160.235C221.852 158.233 222.705 156.417 222.186 154.711C221.63 152.969 219.591 152.784 219.591 154.452C219.591 157.937 210.99 162.83 206.726 161.755C201.574 160.458 199.794 153.636 204.317 152.413C208.803 151.227 212.51 146.222 211.324 142.996C209.915 139.215 197.31 137.621 192.416 140.624ZM207.246 142.107C208.395 143.256 205.689 143.998 200.165 143.998C194.567 143.998 192.12 142.737 195.197 141.439C197.273 140.549 206.17 141.032 207.246 142.107ZM215.921 165.158C215.921 166.597 214.173 169.564 210.986 168.725C207.476 166.744 208.243 163.906 210.986 164.276C212.654 164.536 213.074 164.684 213.63 163.683C214.668 161.755 215.921 162.637 215.921 165.158Z" fill="#243515"/>
<path d="M168.06 143.293C166.429 143.886 165.02 144.368 164.909 144.368C164.798 144.368 164.724 144.85 164.724 145.443C164.724 147.371 169.914 148.409 173.102 147.074C179.034 144.59 174.325 141.069 168.06 143.293Z" fill="#243515"/>
<path d="M227.265 142.848C225.004 143.812 224.596 144.813 225.93 146.147C227.895 148.112 236.644 147.371 236.644 145.258C236.644 143.478 229.934 141.736 227.265 142.848Z" fill="#243515"/>
<path d="M116.528 151.857C116.528 155.342 124.017 162.163 127.836 162.163C131.765 162.163 138.29 157.344 139.18 153.785L139.699 151.708L137.512 153.933C131.988 159.42 121.756 158.53 117.9 152.19L116.528 149.929V151.857Z" fill="#243515"/>
<path d="M242.576 174.768C241.167 175.658 244.207 175.658 247.024 174.768C248.73 174.212 248.656 174.175 246.283 174.101C244.874 174.064 243.206 174.36 242.576 174.768Z" fill="#243515"/>
<path d="M144.794 229.046C146.092 232.197 148.056 232.382 151.245 229.639L153.84 227.414L151.356 228.23C149.354 228.898 148.39 228.823 146.351 227.859L143.83 226.673L144.794 229.046Z" fill="#243515"/>
<path d="M197.414 247.843C197.414 248.64 199.867 250.078 200.966 249.929C201.939 249.795 203.609 248.484 203.736 247.783C203.863 246.904 203.503 247.06 202.087 248.506L200.924 249.698L199.169 248.409L197.414 247.12V247.843Z" fill="#243515"/>
<path d="M125.129 224.965C122.831 238.237 123.906 254.104 127.131 254.104C127.539 254.104 127.28 253.437 126.575 252.658C124.721 250.582 124.425 246.43 125.352 233.751C126.13 222.666 126.056 219.7 125.129 224.965Z" fill="#243515"/>
<path d="M147.373 154.823C147.188 155.379 146.669 157.084 146.187 158.567C145.075 162.2 141.627 166.908 138.809 168.539C136.585 169.874 135.362 174.768 137.289 174.768C137.697 174.768 138.216 176.029 138.476 177.548C139.106 181.404 142.85 183.406 145.482 181.256C147.151 179.921 146.632 178.512 144.519 178.475C143.703 178.475 137.289 172.506 137.289 171.765C137.289 170.912 143.814 167.057 147.892 165.5C150.969 164.35 151.414 163.906 151.006 162.608C150.71 161.755 150.08 159.642 149.598 157.937C148.597 154.378 147.855 153.34 147.373 154.823Z" fill="#243515"/>
<path d="M237.249 270.21L233.9 273.559L235.134 274.793L235.839 272.678L237.249 270.21Z" fill="#243515"/>
<path d="M248.354 274.616L245.005 277.965L246.239 279.199L246.944 277.084L248.354 274.616Z" fill="#243515"/>
<path fill-rule="evenodd" clip-rule="evenodd" d="M195.971 93.5166C195.971 92.4044 196.194 90.8103 196.416 89.9205L196.861 88.3264L200.68 89.8465C206.315 92.145 212.321 96.297 213.915 99.0033C216.139 102.748 218.512 102.896 222.219 99.4482C227.706 94.3694 243.499 90.4024 245.983 93.4426C246.428 93.9985 248.467 95.3332 250.506 96.4084C259.551 101.08 263.555 114.908 258.699 124.769C257.661 126.956 256.771 129.774 256.771 131.071C256.771 134.445 252.619 138.857 249.468 138.857C247.095 138.857 246.428 139.561 247.947 140.488C251.544 142.712 253.175 156.948 249.727 156.096C248.022 155.651 247.947 155.799 248.355 157.875C249.319 162.769 246.131 169.442 243.721 167.44C242.683 166.588 242.572 166.699 242.794 168.256C243.017 169.701 243.832 170.258 247.132 171.258C252.507 172.853 258.995 175.707 258.995 176.449C258.995 177.338 253.842 181.194 250.098 183.085L246.761 184.79L250.728 186.718C254.88 188.757 254.991 189.091 253.472 193.836C253.101 194.948 253.509 195.615 255.066 196.542C256.215 197.247 260.478 200.954 264.556 204.81C269.709 209.629 272.786 211.964 274.492 212.372C283.686 214.374 287.059 221.604 282.018 228.425C280.72 230.167 280.609 230.835 281.313 232.132C282.759 234.876 281.276 243.884 279.348 243.884C277.235 243.884 277.569 245.59 280.868 251.596C282.876 255.318 283.858 257.001 283.375 257.863C282.939 258.641 281.31 258.75 278.162 259.084L273.231 259.603L271.971 262.866C271.118 265.09 270.191 266.276 269.042 266.573C267.782 266.869 267.226 267.685 266.892 269.539C266.299 273.32 263.778 276.916 260.664 278.51C259.144 279.252 256.993 280.512 255.881 281.217C253.768 282.626 252.1 282.626 241.571 281.143C236.492 280.438 234.49 279.511 232.451 276.879C231.635 275.878 230.412 275.026 229.745 275.026C226.668 275.026 220.44 269.761 220.44 267.166C220.44 265.943 219.698 265.943 212.432 267.129L207.019 267.982L203.497 274.469L199.975 280.957L196.676 274.321L196.613 274.194C193.376 267.685 193.358 267.648 190.522 267.648C182.699 267.574 165.164 262.68 156.452 258.157L151.41 255.525L151.892 252.671C152.448 249.371 152.374 249.334 149.111 251.262C144.774 253.82 140.621 254.376 139.769 252.485C138.953 250.743 138.953 250.743 137.396 256.452C135.468 263.57 129.24 266.61 123.642 263.162C119.712 260.715 118.748 257.713 118.897 248.222C119.045 240.844 118.897 239.881 117.636 239.213C114.893 237.767 106.255 228.017 106.255 226.386C106.255 226.163 107.404 224.606 108.85 222.938L111.408 219.935L109.925 217.526C104.401 208.591 107.923 194.466 116.821 189.758C120.157 188.015 120.342 187.756 120.342 184.827C120.342 182.418 120.639 181.713 121.826 181.379C124.606 180.675 123.939 173.075 120.973 171.555C111.927 166.847 110.555 159.358 114.077 133.963C116.635 115.427 116.672 115.278 118.971 115.019C121.195 114.759 121.826 120.172 121.826 139.524C121.826 156.652 123.383 152.314 124.421 132.295C125.236 115.983 125.459 114.871 127.757 114.871C130.241 114.871 130.278 115.019 131.539 135.446C132.428 149.348 133.689 154.835 133.689 144.64C133.689 141.86 133.911 134.037 134.171 127.29L134.653 114.982L136.58 114.648C137.258 114.513 137.733 114.337 138.115 114.457C139.197 114.798 139.53 117.515 141.586 130.256C144.736 149.83 144.959 158.431 142.364 164.104C140.658 167.811 136.506 171.963 134.541 171.963C133.17 171.963 133.429 180.786 134.801 181.342C135.506 181.602 135.913 182.751 135.913 184.494C135.913 187.089 136.136 187.311 139.658 188.831C142.735 190.129 143.625 190.944 144.662 193.428C146.813 198.618 148.777 196.802 147.443 190.87C146.961 188.757 147.072 188.572 150.668 187.2C152.927 186.321 154.094 185.876 154.13 185.353C154.169 184.795 152.919 184.147 150.335 182.788C140.065 177.412 140.399 176.152 153.338 171.963C157.972 170.463 159.219 170.066 159.344 169.444C159.392 169.205 159.275 168.933 159.121 168.552C158.861 167.811 158.454 167.662 157.972 168.144C155.896 170.221 152.818 165.438 152.744 159.951C152.707 156.874 152.485 156.43 151.373 156.8C148.407 157.727 148.74 149.497 151.892 143.268C154.042 139.042 151.589 138.921 150.106 138.921C147.443 137.077 146.294 134.556 146.294 132.703C146.294 131.85 145.812 130.404 145.256 129.477C144.662 128.588 143.662 124.695 142.994 120.839C142.327 116.91 141.252 113.239 140.584 112.498C138.064 109.681 147.443 95.5926 151.855 95.5926C152.374 95.5926 153.597 94.9253 154.635 94.1099C159.492 90.2914 173.542 93.7761 179.585 100.338C180.586 101.376 181.995 102.266 182.736 102.266C183.375 102.266 183.764 102.277 183.918 102.093C184.157 101.806 183.83 101.048 182.996 99.0407C181.772 96.1119 181.513 90.7363 182.551 90.0689C183.144 89.6981 189.15 91.9965 193.932 94.4804C195.897 95.4816 195.971 95.4816 195.971 93.5166ZM213.025 104.342C213.025 103.156 207.649 97.8541 204.202 95.6297C199.011 92.3304 198.567 92.7383 201.199 98.4844C202.941 102.34 202.645 102.97 200.049 100.931C198.01 99.3001 186.333 94.5918 185.776 95.1478C185.628 95.3332 186.11 96.9273 186.888 98.6698C188.409 102.043 191.189 105.083 192.005 104.231C192.598 103.675 194.489 105.121 194.489 106.159C194.489 106.9 190.707 106.566 187.259 105.565C186.333 105.269 185.591 105.343 185.591 105.714C185.628 107.16 188.446 109.903 190.114 110.051C192.894 110.348 193.005 110.385 193.005 111.163C193.005 111.571 191.856 111.905 190.485 111.905C187.704 111.905 183.366 108.902 183.366 106.974C183.366 105.046 175.989 109.606 171.021 114.611C165.757 119.876 161.605 127.587 160.159 134.668C159.64 137.188 158.528 140.043 157.675 140.97C155.636 143.194 154.857 144.788 153.449 149.534C152.077 154.205 152.411 154.316 156.489 150.461C160.048 147.124 162.013 146.494 159.677 149.46C156.822 153.093 155.006 165.327 157.341 165.29C157.944 165.261 158.721 162.266 159.268 160.157C159.427 159.543 159.567 159.004 159.677 158.636C159.789 158.263 159.85 157.969 159.905 157.701C160.034 157.082 160.133 156.607 160.752 155.651C161.901 153.877 162.469 154.758 161.864 157.402C161.616 158.488 161.607 159.542 161.809 160.562V160.575L161.864 160.908V161.249C161.864 164.586 164.682 170.962 167.166 173.149L168.76 174.558L168.278 172.111C167.833 169.739 167.907 169.776 172.022 174.187C174.321 176.671 177.175 179.229 178.399 179.859L180.623 181.009L178.918 178.265L177.212 175.522L180.845 178.08C184.924 181.009 188.038 182.64 190.781 183.381C192.338 183.826 192.412 183.752 191.337 183.085C188.927 181.565 190.003 181.009 193.191 182.121C197.38 183.604 204.572 183.604 208.02 182.121C210.986 180.861 211.616 181.157 209.503 182.863C205.499 186.088 216.028 181.083 220.996 177.375C223.776 175.299 224.035 175.67 221.885 178.71C221.033 179.897 220.551 180.861 220.81 180.861C222.071 180.861 228.039 176.078 229.819 173.594C232.97 169.331 233.304 169.108 232.785 171.778C231.709 177.635 237.641 170.443 239.013 164.215C239.64 161.447 239.792 159.84 239.494 159.413L238.835 157.931L237.171 155.268C237.001 154.216 239.148 155.53 239.54 156.096C239.712 156.343 239.909 156.597 240.108 156.853C240.477 157.328 240.854 157.814 241.089 158.283C241.319 158.744 241.431 159.122 241.609 159.726C241.704 160.047 241.818 160.432 241.979 160.927C242.683 162.161 243.425 163.547 243.425 164.178C243.425 164.845 243.758 165.178 244.166 164.919C246.316 163.584 243.981 151.054 241.275 149.385C240.31 148.792 240.162 147.495 241.089 147.495C241.423 147.495 243.165 148.866 244.945 150.498C246.761 152.166 248.318 153.167 248.467 152.759C249.06 151.017 246.168 143.528 243.944 140.97C242.609 139.45 241.423 137.226 241.275 136.002C239.94 123.509 224.666 105.788 214.619 105.046C213.729 104.972 213.025 104.638 213.025 104.342ZM176.026 102.155C174.284 100.635 171.095 98.7069 168.908 97.8915C166.721 97.0757 163.162 96.1859 161.011 95.9635L157.045 95.4816L158.787 97.0387L160.53 98.5584H157.304C154.042 98.5958 148.407 100.672 147.443 102.229C147.072 102.822 147.517 102.933 149 102.562C151.076 102.043 151.076 102.081 147.999 105.417C142.809 111.089 142.327 115.946 146.071 124.213L147.109 126.549L149.111 124.547C150.223 123.435 151.558 122.396 152.077 122.211C152.855 121.952 152.893 121.396 152.262 119.764C151.781 118.541 151.669 116.502 152.003 114.982C152.299 113.499 152.448 111.831 152.337 111.275C152.225 110.718 152.448 110.459 152.818 110.718C153.189 110.941 154.153 110.422 154.894 109.569C158.157 105.936 163.495 105.083 168.167 107.456C169.905 108.334 170.786 108.804 171.666 108.8C172.644 108.796 173.619 108.206 175.767 106.937L179.177 104.935L176.026 102.155ZM241.052 98.5584L242.794 97.1127L244.537 95.6297L242.312 95.667C236.195 95.7781 228.892 98.5214 224.518 102.377L221.848 104.676L225.778 107.085L229.708 109.458L231.858 107.975C239.384 102.711 249.06 108.198 248.837 117.614C248.726 121.358 248.8 121.544 250.654 121.544C251.729 121.544 253.175 122.1 253.953 122.767C255.733 124.398 255.955 124.065 256.808 118.578C257.772 112.646 256.845 109.606 252.804 105.417L249.764 102.229L252.285 102.748C254.176 103.119 254.658 103.007 254.213 102.303C253.212 100.672 247.614 98.5958 244.277 98.5584H241.052ZM161.568 118.726C165.72 116.057 168.797 111.683 167.314 110.607C162.643 107.197 155.191 111.571 155.191 117.725C155.191 121.433 159.751 126.067 160.567 123.212C160.789 122.508 161.197 121.321 161.494 120.617C161.939 119.579 161.753 119.394 160.641 119.764C159.9 120.024 160.307 119.542 161.568 118.726ZM243.684 122.693C246.798 119.357 245.834 112.498 241.979 110.459C240.162 109.458 235.306 109.495 233.563 110.496C232.377 111.2 232.562 111.571 235.343 114.722C237.011 116.65 239.124 119.69 240.051 121.507L241.756 124.806L243.684 122.693ZM132.428 153.278C130.612 153.093 130.278 152.648 129.796 149.719C129.5 147.866 128.981 140.71 128.684 133.778C128.054 120.135 127.09 123.397 126.979 139.635C126.867 150.757 126.311 153.019 123.679 153.241C119.675 153.612 119.638 153.389 119.082 137.077L118.563 121.915L116.895 136.002C113.966 160.619 115.375 166.513 124.717 169.368C126.422 169.887 126.46 170.072 126.052 175.373L125.644 180.861H127.831H129.982V175.448V170.035L132.539 169.108C138.768 166.847 141.548 160.545 140.844 150.09C140.362 142.898 137.582 122.211 136.988 121.655C136.803 121.47 136.655 128.143 136.655 136.521C136.655 153.167 136.506 153.76 132.428 153.278ZM245.019 135.075C250.58 139.747 257.587 131.554 253.027 125.733C251.47 123.768 249.356 123.101 249.356 124.547C249.356 124.954 249.838 125.474 250.394 125.696C253.916 127.068 252.878 134 249.023 134.779C245.316 135.483 243.425 128.921 246.539 126.03C247.91 124.732 247.947 124.51 246.91 124.51C242.757 124.51 241.386 132.073 245.019 135.075ZM155.415 126.029C155.953 125.892 156.34 125.794 156.34 125.696C156.34 125.436 154.042 124.547 153.523 124.584C146.664 124.991 147.479 137.327 154.374 137.327C158.605 136.27 159.069 127.862 158.781 127.29C158.733 127.194 158.626 127.552 158.444 128.163C157.854 130.146 156.468 134.796 153.708 135.212C150.038 133.766 149.556 129.997 152.596 127.179C153.241 126.58 154.532 126.253 155.415 126.029ZM155.993 129.482L155.992 129.477C155.816 128.671 155.191 128.495 154.374 128.495C151.965 129.941 151.139 131.665 153.141 132.703C154.374 133.607 155.77 132.492 155.992 131.492C156.214 130.493 156.168 130.284 155.993 129.482ZM247.725 131.924C249.208 131.924 251.062 129.848 250.617 128.699C250.135 127.475 248.541 127.068 247.614 127.958C246.91 128.662 247.021 131.924 247.725 131.924ZM254.027 176.931C253.694 176.746 251.099 175.856 248.244 174.966C245.39 174.076 242.646 173.223 242.164 173.075C239.532 172.26 238.012 179.526 240.236 182.269L241.682 184.049L248.133 180.638C251.692 178.785 254.324 177.116 254.027 176.931ZM158.231 183.455C161.086 184.531 163.051 178.562 161.086 174.892C160.011 172.853 151.298 174.41 148.259 177.153C147.703 177.672 154.857 182.158 158.231 183.455ZM234.638 176.412C219.29 188.646 194.081 191.13 175.433 182.269C172.912 181.083 169.13 178.747 167.054 177.079C162.606 173.594 163.273 176.56 167.759 180.341C183.107 193.28 219.031 192.983 233.6 179.822C237.641 176.189 238.494 173.297 234.638 176.412ZM131.872 189.795C132.91 190.648 133.022 190.388 132.799 187.496L132.577 184.197L127.943 183.975L123.309 183.752L123.346 186.199C123.346 188.386 123.457 188.498 124.346 187.348C125.755 185.457 130.723 185.531 130.723 187.459C130.723 188.201 131.242 189.276 131.872 189.795ZM160.381 186.866C160.381 188.275 165.905 193.725 167.017 193.354C167.462 193.206 166.165 191.426 164.126 189.424C161.901 187.237 160.381 186.199 160.381 186.866ZM234.008 193.169C234.638 193.799 237.789 191.5 239.606 189.017C240.644 187.608 240.904 186.792 240.31 186.829C239.124 186.829 233.415 192.613 234.008 193.169ZM156.34 191.13C157.935 190.574 158.861 189.758 158.75 189.091C158.416 187.496 157.378 187.496 153.968 189.091L150.928 190.462L154.005 198.099C157.416 206.404 159.343 210.111 158.565 206.812C158.305 205.773 157.898 203.29 157.638 201.288C157.341 198.915 156.526 196.913 155.451 195.727C153.078 193.169 153.263 192.242 156.34 191.13ZM250.802 190.425L247.429 188.98C243.351 187.237 242.683 187.2 242.683 188.683C242.683 189.313 243.869 190.314 245.316 190.944C247.54 191.871 247.873 192.316 247.466 193.688C246.687 196.097 246.539 196.134 244.314 193.984C241.867 191.611 241.089 191.537 239.458 193.354C236.826 196.246 239.124 199.36 241.979 196.765C243.388 195.504 243.425 195.504 243.425 197.803C243.425 199.1 243.721 200.138 244.092 200.138C244.463 200.138 244.277 201.695 243.721 203.586C242.387 208.035 242.794 208.48 244.537 204.402C245.187 202.794 246.721 199.386 248.003 196.539C248.11 196.301 248.215 196.067 248.318 195.838L250.802 190.425ZM172.912 198.248C181.55 196.654 183.329 194.021 178.732 189.721C175.952 187.126 174.247 187.867 169.687 193.539C167.176 196.691 165.888 198.258 166.24 198.848C166.6 199.453 168.675 199.035 172.912 198.248ZM235.269 198.878C235.269 198.173 229.3 190.24 227.965 189.202C226.112 187.719 223.628 188.127 221.959 190.24C218.994 194.021 220.402 196.765 225.815 197.803C231.969 198.989 235.269 199.323 235.269 198.878ZM141.623 204.142C143.625 201.399 142.846 195.801 140.065 193.021C136.025 188.98 134.43 190.24 137.396 195.097C138.175 196.431 139.25 199.323 139.732 201.51C140.547 205.069 140.733 205.366 141.623 204.142ZM124.606 219.898C137.211 221.455 142.03 200.361 130.797 192.909C118.711 184.902 105.736 202.437 113.373 216.45C116.821 222.79 121.826 225.682 121.826 221.307C121.826 219.713 122.085 219.602 124.606 219.898ZM160.456 196.431C162.087 196.431 162.161 196.134 161.086 194.17C160.233 192.501 159.195 192.316 158.713 193.65C158.157 195.171 158.935 196.431 160.456 196.431ZM203.052 204.587C205.981 197.358 206.092 196.32 204.313 194.8C202.274 193.058 200.865 192.798 198.455 193.836C194.637 195.43 194.674 196.097 199.679 208.665L200.531 210.89L203.052 204.587ZM156.851 217.837C156.529 215.367 155.6 212.977 154.042 208.406C152.151 202.845 150.52 198.173 150.409 198.062C150.075 197.728 145.552 203.104 145.552 203.808C145.552 204.179 144.662 205.514 143.587 206.812C141.4 209.444 141.956 210.482 145.589 210.519C148.444 210.519 154.45 212.743 154.45 213.781C154.45 214.263 152.967 216.117 151.113 217.933C149.074 219.935 147.777 221.863 147.777 222.938C147.777 227.239 141.178 236.47 138.101 236.47C137.545 236.47 137.359 238.583 137.507 243.143C137.804 250.817 138.545 251.41 143.625 247.962C146.738 245.849 147.628 245.59 146.294 247.221C144.996 248.815 146.442 248.667 149.927 246.887L152.744 245.442L154.301 237.063C156.458 225.414 157.335 221.537 156.851 217.837ZM264.593 209.814C261.702 207.034 257.587 203.216 255.436 201.325L255.411 201.302C251.024 197.469 250.986 197.436 250.283 199.212C243.314 217.377 241.83 231.613 247.577 225.274C249.319 223.346 253.027 221.381 253.694 222.011C253.953 222.271 253.101 223.457 251.766 224.644C250.262 225.984 249.484 226.661 249.606 227.072C249.733 227.501 250.844 227.64 253.138 227.943C259.032 228.759 267.856 233.578 272.193 238.323C275.938 242.401 276.79 242.475 276.79 238.583C276.79 237.767 277.124 237.323 277.532 237.582C278.718 238.323 278.384 234.468 277.05 231.428C275.863 228.833 275.789 228.796 275.53 230.538C274.937 234.357 274.269 234.505 273.824 230.909C273.306 226.423 273.417 226.126 275.307 226.608C276.123 226.831 276.568 227.313 276.308 227.721C276.086 228.128 276.605 228.091 277.495 227.609C278.347 227.128 279.385 225.978 279.719 225.051C280.497 223.012 279.83 217.044 278.903 217.637C277.087 218.749 269.598 214.671 264.593 209.814ZM192.783 203.104C191.893 203.104 188.334 202.437 184.849 201.584C181.402 200.769 177.954 199.916 177.249 199.693C176.545 199.471 175.952 199.656 175.952 200.064C175.952 201.139 184.775 203.734 190.559 204.328C194.192 204.698 195.304 204.587 194.933 203.957C194.637 203.475 193.673 203.104 192.783 203.104ZM208.02 204.587C212.84 204.587 225.63 201.251 225.63 199.99C225.63 199.323 223.887 199.175 223.257 199.767C223.035 199.99 219.179 200.954 214.619 201.881C205.87 203.66 203.645 204.587 208.02 204.587ZM168.426 207.849C171.281 205.477 173.431 203.253 173.246 202.919C172.504 201.695 170.91 202.585 165.349 207.294L159.603 212.187L172.764 225.645L185.962 239.065L185.739 249.816C185.591 255.711 185.368 260.678 185.183 260.827C183.96 262.087 157.416 253.449 157.416 251.818C157.453 251.336 157.786 248.741 158.157 246.109C161.79 221.937 162.161 218.675 161.271 218.675C160.937 218.675 159.751 224.087 158.639 230.723C157.49 237.36 156.155 245.034 155.599 247.814L154.635 252.819L157.935 254.784C162.198 257.268 171.726 260.493 179.288 262.05C182.551 262.717 185.962 263.422 186.888 263.644L188.557 264.052V251.447V238.842L185.109 234.876C183.181 232.688 177.472 226.72 172.43 221.567L163.236 212.224L168.426 207.849ZM238.197 209.258C236.381 207.627 233.86 205.366 232.562 204.328C230.227 202.363 227.854 201.732 227.854 203.067C227.854 203.438 228.299 204.031 228.855 204.365C229.411 204.698 231.635 206.552 233.823 208.517L237.752 212.076L227.002 222.975C217.626 232.479 214.173 235.515 212.927 239.281C212.02 242.023 212.283 245.153 212.283 251.447C212.283 263.199 212.358 264.015 213.581 263.496C214.285 263.199 215.954 262.791 217.288 262.606C219.031 262.347 219.698 261.865 219.698 260.864C219.698 259.715 219.401 259.603 217.807 260.196C216.732 260.604 215.731 260.938 215.583 260.938C215.397 260.938 215.249 255.97 215.249 249.927V238.917L217.511 236.025C218.734 234.431 224.629 228.462 230.598 222.716L241.497 212.298L238.197 209.258ZM183.075 212.2C182.437 210.065 181.952 208.442 181.772 207.812C181.402 206.478 180.475 205.329 179.659 205.106C177.88 204.661 177.806 205.292 179.363 208.888C180.957 212.632 186.333 228.499 186.295 229.426C186.295 229.834 183.811 227.498 180.808 224.236C177.806 220.973 175.099 218.526 174.803 218.823C174.506 219.12 176.582 221.641 179.363 224.421C182.18 227.239 185.591 230.835 186.925 232.429L189.335 235.358L188.89 232.762C188.668 231.317 187.111 225.645 185.443 220.158C184.602 217.313 183.752 214.468 183.075 212.2ZM215.434 228.017C214.99 227.572 220.477 211.89 222.404 208.109C224.147 204.624 224.035 204.29 221.107 205.069C220.402 205.255 219.401 207.145 218.697 209.629C218.03 211.964 216.621 216.673 215.583 220.121C212.469 230.649 211.431 235.766 212.877 233.504C213.544 232.466 216.918 228.722 220.365 225.163C223.813 221.604 226.334 218.675 225.926 218.675C225.518 218.675 223.072 220.825 220.477 223.457C217.844 226.126 215.583 228.165 215.434 228.017ZM198.196 211.816C196.898 208.888 196.565 208.628 193.228 208.22C191.263 207.961 188.594 207.516 187.259 207.219C186.185 206.985 185.51 206.762 185.222 207.002C184.736 207.408 185.359 209.144 187.037 214.411C191.967 230.019 192.412 232.392 192.783 246.591L193.154 260.048L195.044 261.049C197.973 262.606 205.165 262.31 207.13 260.53C208.65 259.158 208.725 258.639 208.391 249.075C207.983 236.729 209.985 225.756 215.583 209.851L216.732 206.626L214.36 207.108C213.062 207.368 210.244 207.775 208.131 208.035C204.498 208.443 204.202 208.628 203.163 211.372C201.866 214.634 202.088 214.782 205.425 212.743C206.76 211.927 208.243 211.26 208.725 211.26C209.206 211.26 207.612 212.447 205.202 213.929L200.791 216.599L196.12 214.152C193.524 212.78 191.819 211.52 192.264 211.372C192.709 211.223 194.34 211.964 195.86 213.04C199.604 215.635 199.827 215.487 198.196 211.816ZM170.169 214.078C172.838 216.747 177.324 213.262 174.766 210.445C173.357 208.851 172.467 208.739 170.576 209.851C169.093 210.704 168.871 212.78 170.169 214.078ZM225.852 213.781C227.891 216.562 232.933 213.596 231.117 210.704C230.004 208.962 227.557 208.702 226.074 210.148C224.629 211.631 224.592 212.076 225.852 213.781ZM136.173 220.677C136.84 221.307 139.621 216.932 140.065 214.486C140.325 213.077 140.325 211.742 140.065 211.483C139.843 211.223 139.621 211.52 139.621 212.15C139.621 212.743 138.768 214.856 137.73 216.821C136.692 218.749 135.987 220.491 136.173 220.677ZM151.002 213.855L148.815 213.374C146.108 212.817 142.586 212.632 142.586 213.077C142.586 213.966 145.144 218.675 145.626 218.675C145.923 218.675 147.258 217.6 148.592 216.265L151.002 213.855ZM241.942 227.535C241.942 226.683 241.571 224.532 241.126 222.716C240.088 218.712 238.494 217.192 239.236 220.973C239.517 222.276 239.899 224.514 240.159 226.038L240.199 226.275C240.681 229.204 241.942 230.13 241.942 227.535ZM143.18 225.941C144.477 224.644 144.292 221.122 142.883 220.603C139.435 219.268 135.283 223.198 137.433 225.756C138.508 227.053 141.956 227.165 143.18 225.941ZM133.763 239.176C133.318 231.243 132.947 224.087 132.947 223.235C132.947 221.529 132.614 221.418 130.352 222.382C129.537 222.716 127.831 223.049 126.571 223.087L124.272 223.124L123.42 231.836C122.938 236.618 122.493 244.144 122.382 248.593L122.196 256.6L124.606 258.788C127.572 261.42 129.463 261.494 131.835 259.158C134.504 256.489 134.653 254.821 133.763 239.176ZM116.635 231.28C118.489 231.28 119.824 227.943 118.452 226.794C116.709 225.348 111.408 224.606 110.963 225.756C110.481 226.942 114.93 231.28 116.635 231.28ZM137.359 233.356C137.878 233.541 139.509 232.466 140.992 230.983C144.292 227.684 143.884 227.572 139.658 230.686C137.804 232.058 136.84 233.207 137.359 233.356ZM245.464 238.805C247.392 240.733 252.211 237.397 251.173 234.839C250.951 234.319 249.245 232.762 247.355 231.354L243.981 228.87L244.314 233.43C244.5 235.914 245.019 238.36 245.464 238.805ZM263.815 236.136C267.522 237.693 263.148 234.319 259.181 232.577C254.769 230.649 249.356 229.463 249.356 230.464C249.356 230.761 252.285 232.021 255.844 233.245C259.403 234.505 262.999 235.803 263.815 236.136ZM179.437 247.184C178.769 246.924 175.359 243.254 171.837 238.991C168.315 234.764 165.349 231.28 165.275 231.28C162.976 231.28 164.089 233.689 169.168 239.621C172.282 243.291 175.581 247.184 176.471 248.259C177.991 250.076 178.139 250.113 179.363 248.926C180.549 247.74 180.549 247.592 179.437 247.184ZM240.459 233.875L238.791 233.43C235.602 232.614 230.82 232.021 230.82 232.429C230.82 233.245 235.491 239.436 236.121 239.436C236.418 239.436 237.53 238.175 238.568 236.655L240.459 233.875ZM118.934 236.47C120.268 236.47 119.527 235.209 117.711 234.357C116.672 233.875 115.597 233.504 115.301 233.541C114.559 233.578 118.155 236.47 118.934 236.47ZM227.187 237.953C226.742 237.953 226.371 238.36 226.371 238.88C226.334 239.51 226.112 239.436 225.667 238.731C225.074 237.767 224.888 237.804 224.48 238.88C224.221 239.584 223.702 239.992 223.331 239.769C222.961 239.547 222.886 239.881 223.109 240.511C223.368 241.141 223.22 242.105 222.775 242.661C221.996 243.588 222.145 246.591 223.035 247.481C223.294 247.74 223.776 247.443 224.147 246.813C224.518 246.22 225.111 245.738 225.407 245.701C228.373 245.59 230.523 241.178 228.002 240.362C227.557 240.214 227.372 239.584 227.594 239.028C227.817 238.435 227.631 237.953 227.187 237.953ZM259.292 242.735C260.478 247.443 264.964 246.813 267.485 241.586L269.227 237.953L266.521 238.064C260.441 238.286 258.476 239.547 259.292 242.735ZM272.119 244.292C275.307 248.111 276.494 247.406 273.491 243.477C272.416 242.068 271.007 240.919 270.414 240.919C269.672 240.919 270.228 242.031 272.119 244.292ZM269.376 260.901C269.376 254.858 260.478 246.628 250.172 243.18C244.722 241.326 236.64 241.104 235.269 242.772C234.453 243.736 234.898 243.884 238.605 243.884C250.543 243.884 266.039 252.967 267.633 260.901C268.226 263.83 269.376 263.83 269.376 260.901ZM264.63 264.571C265.261 259.863 260.293 254.339 251.803 250.335C242.832 246.109 237.789 245.849 234.676 249.371C227.706 257.342 226.408 270.577 232.451 272.468C233.341 272.764 234.713 273.765 235.454 274.692C237.048 276.768 241.275 278.251 244.203 277.843C245.39 277.658 246.465 277.843 246.576 278.214C246.947 279.252 253.027 278.955 254.435 277.843C255.103 277.324 256.919 276.249 258.439 275.47C261.59 273.876 263.926 269.798 264.63 264.571ZM274.529 256.489C280.127 256.452 280.72 255.414 277.272 251.707C274.455 248.778 273.713 248.555 272.008 250.224C269.524 252.708 271.044 256.489 274.529 256.489ZM225.815 264.83C225.444 259.826 225.815 258.38 229.189 251.855C229.967 250.298 227.706 251.633 225.741 253.894C222.145 257.972 221.811 263.274 224.814 267.871L226.186 269.947L225.815 264.83ZM201.384 267.834C200.643 267.314 199.716 266.647 199.308 266.314C196.602 264.052 195.897 265.016 197.565 268.649C198.678 271.096 200.494 271.726 201.718 270.058C202.533 268.946 202.496 268.612 201.384 267.834Z" fill="#243515"/>
<path d="M196.68 220.06C196.793 220.195 196.872 220.304 196.917 220.387C196.962 220.47 196.985 220.549 196.985 220.624C196.985 220.714 196.924 220.82 196.804 220.94C196.691 221.06 196.578 221.12 196.466 221.12C196.315 221.12 196.195 221.098 196.105 221.053C196.014 221.007 195.939 220.936 195.879 220.838C195.759 220.658 195.612 220.504 195.439 220.376C195.266 220.24 194.995 220.173 194.627 220.173C194.311 220.173 193.95 220.244 193.544 220.387C193.145 220.53 192.86 220.707 192.687 220.917C192.536 221.105 192.405 221.391 192.292 221.775C192.186 222.158 192.134 222.53 192.134 222.891C192.134 223.327 192.228 223.73 192.416 224.098C192.611 224.459 192.89 224.749 193.251 224.967C193.619 225.185 194.059 225.294 194.57 225.294C194.849 225.294 195.134 225.242 195.428 225.136C195.728 225.023 195.988 224.843 196.206 224.595H196.195C196.33 224.452 196.499 224.38 196.703 224.38C196.823 224.38 196.936 224.433 197.041 224.538C197.154 224.644 197.21 224.749 197.21 224.854C197.21 224.967 197.191 225.069 197.154 225.159C197.124 225.242 197.064 225.335 196.973 225.441C196.665 225.787 196.3 226.024 195.879 226.151C195.458 226.279 194.954 226.343 194.367 226.343C193.848 226.343 193.322 226.219 192.788 225.971C192.262 225.723 191.856 225.422 191.57 225.069C191.419 224.85 191.273 224.538 191.13 224.132C190.994 223.719 190.927 223.384 190.927 223.128C190.927 222.474 191.024 221.853 191.22 221.267C191.423 220.673 191.724 220.199 192.123 219.846C192.386 219.605 192.766 219.424 193.262 219.304C193.758 219.184 194.213 219.124 194.627 219.124C195.131 219.124 195.525 219.195 195.811 219.338C196.105 219.473 196.394 219.714 196.68 220.06ZM203.489 224.38C203.489 224.734 203.414 225.02 203.263 225.238C203.113 225.456 202.853 225.67 202.485 225.881C202.237 226.031 201.951 226.148 201.628 226.23C201.304 226.306 200.977 226.343 200.646 226.343C200.443 226.343 200.206 226.306 199.936 226.23C199.672 226.148 199.458 226.069 199.293 225.994L199.1 225.824C198.762 225.546 198.525 225.324 198.39 225.159C198.262 224.986 198.198 224.775 198.198 224.527C198.198 224.331 198.243 224.185 198.334 224.087C198.424 223.989 198.571 223.94 198.774 223.94C198.879 223.94 198.977 223.974 199.067 224.042C199.157 224.11 199.236 224.204 199.304 224.324C199.492 224.655 199.713 224.899 199.969 225.057C200.232 225.208 200.541 225.283 200.894 225.283C201.225 225.283 201.56 225.181 201.898 224.978C202.177 224.805 202.316 224.636 202.316 224.471C202.316 224.177 202.184 223.933 201.921 223.737C201.665 223.542 201.297 223.365 200.815 223.207C200.522 223.102 200.082 222.906 199.496 222.621C199.097 222.425 198.8 222.185 198.604 221.899C198.409 221.613 198.311 221.312 198.311 220.996C198.311 220.71 198.409 220.432 198.604 220.161C198.807 219.883 199.052 219.676 199.338 219.541C199.488 219.466 199.729 219.387 200.06 219.304C200.39 219.214 200.638 219.169 200.804 219.169C201.112 219.169 201.379 219.206 201.605 219.281C201.831 219.349 202.052 219.447 202.271 219.575C202.601 219.763 202.846 219.932 203.004 220.082C203.162 220.233 203.241 220.421 203.241 220.646C203.241 220.782 203.188 220.902 203.083 221.007C202.985 221.113 202.812 221.165 202.564 221.165C202.504 221.165 202.443 221.139 202.383 221.086C202.323 221.034 202.248 220.955 202.158 220.849C202.037 220.692 201.921 220.586 201.808 220.534C201.778 220.526 201.654 220.477 201.436 220.387C201.225 220.297 200.962 220.252 200.646 220.252C200.345 220.252 200.078 220.323 199.845 220.466C199.612 220.601 199.496 220.801 199.496 221.064C199.496 221.327 199.732 221.542 200.206 221.707C200.71 221.902 201.127 222.072 201.458 222.214C201.797 222.357 202.124 222.526 202.44 222.722C202.801 222.94 203.064 223.169 203.23 223.41C203.402 223.651 203.489 223.974 203.489 224.38ZM210.263 220.06C210.376 220.195 210.455 220.304 210.5 220.387C210.545 220.47 210.568 220.549 210.568 220.624C210.568 220.714 210.508 220.82 210.387 220.94C210.274 221.06 210.162 221.12 210.049 221.12C209.899 221.12 209.778 221.098 209.688 221.053C209.598 221.007 209.522 220.936 209.462 220.838C209.417 220.771 209.312 220.684 209.146 220.579C208.981 220.466 208.793 220.372 208.582 220.297C208.372 220.214 208.176 220.173 207.996 220.173C207.702 220.173 207.398 220.244 207.082 220.387C206.774 220.522 206.526 220.699 206.337 220.917C206.179 221.113 206.037 221.406 205.909 221.797C205.781 222.181 205.717 222.545 205.717 222.891C205.717 223.327 205.811 223.73 205.999 224.098C206.195 224.459 206.473 224.749 206.834 224.967C207.202 225.185 207.642 225.294 208.154 225.294C208.432 225.294 208.669 225.253 208.864 225.17C209.067 225.087 209.286 224.967 209.519 224.809C209.699 224.696 209.838 224.613 209.936 224.561C210.041 224.508 210.158 224.482 210.286 224.482C210.406 224.482 210.519 224.534 210.624 224.64C210.737 224.745 210.793 224.85 210.793 224.956C210.793 225.151 210.677 225.347 210.444 225.542C210.158 225.775 209.895 225.952 209.654 226.073C209.414 226.185 209.165 226.26 208.909 226.298C208.661 226.328 208.342 226.343 207.951 226.343C207.432 226.343 206.905 226.219 206.371 225.971C205.845 225.723 205.439 225.422 205.153 225.069C205.003 224.85 204.856 224.538 204.713 224.132C204.578 223.719 204.51 223.384 204.51 223.128C204.51 222.489 204.619 221.872 204.837 221.278C205.055 220.684 205.367 220.207 205.773 219.846C206.044 219.597 206.379 219.417 206.777 219.304C207.183 219.184 207.575 219.124 207.951 219.124C208.432 219.124 208.846 219.202 209.191 219.36C209.545 219.518 209.902 219.751 210.263 220.06Z" fill="#243515"/>
<path d="M199 298.588C263.346 298.588 315.509 246.425 315.509 182.079C315.509 117.733 263.346 65.5696 199 65.5696C134.653 65.5696 82.4902 117.733 82.4902 182.079C82.4902 246.425 134.653 298.588 199 298.588Z" stroke="#243515" stroke-width="4"/>
</svg>
